<svg width="488" height="105" viewBox="0 0 488 105" fill="none" xmlns="http://www.w3.org/2000/svg">
<path d="M25.2935 4.73425L40.1642 88.6302M51.6435 37.7723L76.5283 28.3149C78.9816 27.3825 78.9691 23.9661 76.5091 23.051L25.2935 4M40.5935 88.4309L72.0036 74.4066C74.3645 73.3525 73.9066 70.1589 71.2881 69.4158L52.9185 64.2029M39.7435 88.7979L5.56314 73.9672C3.22533 72.9529 3.58618 69.8209 6.13556 68.9989L21.8848 63.921" stroke="white" stroke-width="7" stroke-linecap="round" stroke-linejoin="round"/>
<path d="M116.175 84.3019C112.737 84.3019 109.644 83.6913 106.894 82.47C104.197 81.1956 102.055 79.4965 100.468 77.3725C98.8817 75.1954 98.0356 72.7795 97.9298 70.1245H107.29C107.449 71.983 108.322 73.5494 109.908 74.8238C111.548 76.045 113.584 76.6557 116.016 76.6557C118.555 76.6557 120.511 76.1778 121.886 75.222C123.314 74.2131 124.028 72.9388 124.028 71.3989C124.028 69.7528 123.235 68.5315 121.648 67.7351C120.115 66.9386 117.656 66.0625 114.271 65.1067C110.992 64.204 108.322 63.3279 106.259 62.4783C104.197 61.6287 102.399 60.3278 100.865 58.5755C99.3841 56.8233 98.6437 54.5135 98.6437 51.6461C98.6437 49.3098 99.3312 47.1858 100.706 45.2743C102.081 43.3096 104.038 41.7698 106.576 40.6547C109.168 39.5396 112.129 38.9821 115.461 38.9821C120.432 38.9821 124.425 40.2564 127.439 42.8052C130.507 45.3008 132.146 48.7257 132.358 53.0798H123.314C123.156 51.1151 122.362 49.5487 120.935 48.3806C119.507 47.2124 117.576 46.6283 115.144 46.6283C112.764 46.6283 110.939 47.0796 109.67 47.9823C108.401 48.885 107.766 50.0797 107.766 51.5665C107.766 52.7347 108.189 53.717 109.036 54.5135C109.882 55.31 110.913 55.9471 112.129 56.425C113.346 56.8498 115.144 57.4074 117.523 58.0976C120.697 58.9472 123.288 59.8233 125.298 60.726C127.36 61.5756 129.132 62.85 130.612 64.5491C132.093 66.2483 132.86 68.505 132.913 71.3192C132.913 73.8149 132.225 76.045 130.85 78.0097C129.475 79.9743 127.519 81.5142 124.98 82.6293C122.495 83.7444 119.56 84.3019 116.175 84.3019Z" fill="white"/>
<path d="M151.728 46.1504C153.261 44.1327 155.35 42.4335 157.994 41.0529C160.639 39.6724 163.627 38.9821 166.958 38.9821C170.766 38.9821 174.23 39.9379 177.35 41.8494C180.523 43.7079 183.009 46.3363 184.807 49.7346C186.605 53.1329 187.504 57.0357 187.504 61.4429C187.504 65.8501 186.605 69.8059 184.807 73.3104C183.009 76.7619 180.523 79.4699 177.35 81.4346C174.23 83.3461 170.766 84.3019 166.958 84.3019C163.627 84.3019 160.665 83.6382 158.074 82.3107C155.482 80.9301 153.367 79.231 151.728 77.2132V104.453H142.684V39.6989H151.728V46.1504ZM178.302 61.4429C178.302 58.4162 177.667 55.8144 176.398 53.6373C175.182 51.4072 173.542 49.7346 171.48 48.6195C169.47 47.4513 167.302 46.8672 164.975 46.8672C162.701 46.8672 160.533 47.4513 158.47 48.6195C156.461 49.7877 154.821 51.4868 153.552 53.717C152.336 55.9471 151.728 58.5755 151.728 61.6022C151.728 64.6288 152.336 67.2837 153.552 69.567C154.821 71.7971 156.461 73.4963 158.47 74.6645C160.533 75.8326 162.701 76.4167 164.975 76.4167C167.302 76.4167 169.47 75.8326 171.48 74.6645C173.542 73.4432 175.182 71.6909 176.398 69.4077C177.667 67.1244 178.302 64.4695 178.302 61.4429Z" fill="white"/>
<path d="M215.406 84.3019C211.281 84.3019 207.552 83.3727 204.221 81.5142C200.889 79.6026 198.271 76.9477 196.367 73.5494C194.464 70.098 193.512 66.1156 193.512 61.6022C193.512 57.1419 194.49 53.186 196.447 49.7346C198.403 46.2832 201.074 43.6282 204.459 41.7698C207.843 39.9113 211.625 38.9821 215.802 38.9821C219.98 38.9821 223.761 39.9113 227.146 41.7698C230.531 43.6282 233.201 46.2832 235.158 49.7346C237.115 53.186 238.093 57.1419 238.093 61.6022C238.093 66.0625 237.088 70.0183 235.079 73.4697C233.069 76.9212 230.319 79.6026 226.829 81.5142C223.391 83.3727 219.584 84.3019 215.406 84.3019ZM215.406 76.4167C217.733 76.4167 219.901 75.8592 221.911 74.7441C223.973 73.629 225.639 71.9564 226.908 69.7263C228.177 67.4961 228.812 64.7881 228.812 61.6022C228.812 58.4162 228.204 55.7347 226.987 53.5577C225.771 51.3275 224.158 49.6549 222.149 48.5399C220.139 47.4248 217.971 46.8672 215.644 46.8672C213.317 46.8672 211.149 47.4248 209.139 48.5399C207.182 49.6549 205.622 51.3275 204.459 53.5577C203.295 55.7347 202.713 58.4162 202.713 61.6022C202.713 66.3279 203.903 69.9918 206.283 72.5936C208.716 75.1423 211.757 76.4167 215.406 76.4167Z" fill="white"/>
<path d="M256.076 46.0708C257.398 43.8406 259.143 42.1149 261.312 40.8936C263.533 39.6193 266.151 38.9821 269.165 38.9821V48.3806H266.865C263.321 48.3806 260.624 49.2832 258.773 51.0886C256.975 52.894 256.076 56.0268 256.076 60.4871V83.5851H247.033V39.6989H256.076V46.0708Z" fill="white"/>
<path d="M288.028 47.1062V71.3989C288.028 73.0449 288.398 74.2397 289.139 74.9831C289.932 75.6733 291.254 76.0185 293.105 76.0185H298.658V83.5851H291.518C287.446 83.5851 284.326 82.6293 282.158 80.7177C279.99 78.8062 278.905 75.6999 278.905 71.3989V47.1062H273.749V39.6989H278.905V28.7871H288.028V39.6989H298.658V47.1062H288.028Z" fill="white"/>
<path d="M359.904 38.9821C363.341 38.9821 366.408 39.6989 369.105 41.1326C371.855 42.5662 373.997 44.6902 375.531 47.5044C377.117 50.3187 377.911 53.717 377.911 57.6994V83.5851H368.947V59.0534C368.947 55.1241 367.968 52.124 366.012 50.0532C364.055 47.9292 361.384 46.8672 358 46.8672C354.615 46.8672 351.918 47.9292 349.908 50.0532C347.952 52.124 346.973 55.1241 346.973 59.0534V83.5851H338.009V59.0534C338.009 55.1241 337.031 52.124 335.074 50.0532C333.118 47.9292 330.447 46.8672 327.062 46.8672C323.678 46.8672 320.981 47.9292 318.971 50.0532C317.014 52.124 316.036 55.1241 316.036 59.0534V83.5851H306.993V39.6989H316.036V44.7167C317.517 42.9114 319.394 41.5043 321.668 40.4954C323.942 39.4865 326.375 38.9821 328.966 38.9821C332.457 38.9821 335.577 39.7255 338.327 41.2122C341.077 42.699 343.192 44.8495 344.673 47.6637C345.995 45.0088 348.057 42.9114 350.86 41.3715C353.663 39.7786 356.678 38.9821 359.904 38.9821Z" fill="white"/>
<path d="M386.404 61.4429C386.404 57.0357 387.303 53.1329 389.101 49.7346C390.952 46.3363 393.437 43.7079 396.557 41.8494C399.73 39.9379 403.221 38.9821 407.029 38.9821C410.466 38.9821 413.454 39.6724 415.992 41.0529C418.584 42.3804 420.646 44.053 422.18 46.0708V39.6989H431.302V83.5851H422.18V77.0539C420.646 79.1248 418.557 80.8505 415.913 82.231C413.269 83.6116 410.254 84.3019 406.87 84.3019C403.115 84.3019 399.678 83.3461 396.557 81.4346C393.437 79.4699 390.952 76.7619 389.101 73.3104C387.303 69.8059 386.404 65.8501 386.404 61.4429ZM422.18 61.6022C422.18 58.5755 421.545 55.9471 420.276 53.717C419.06 51.4868 417.447 49.7877 415.437 48.6195C413.428 47.4513 411.259 46.8672 408.932 46.8672C406.605 46.8672 404.437 47.4513 402.428 48.6195C400.418 49.7346 398.779 51.4072 397.509 53.6373C396.293 55.8144 395.685 58.4162 395.685 61.4429C395.685 64.4695 396.293 67.1244 397.509 69.4077C398.779 71.6909 400.418 73.4432 402.428 74.6645C404.49 75.8326 406.658 76.4167 408.932 76.4167C411.259 76.4167 413.428 75.8326 415.437 74.6645C417.447 73.4963 419.06 71.7971 420.276 69.567C421.545 67.2837 422.18 64.6288 422.18 61.6022Z" fill="white"/>
<path d="M452.224 46.1504C453.757 44.1327 455.846 42.4335 458.49 41.0529C461.135 39.6724 464.123 38.9821 467.454 38.9821C471.262 38.9821 474.726 39.9379 477.846 41.8494C481.019 43.7079 483.505 46.3363 485.303 49.7346C487.101 53.1329 488 57.0357 488 61.4429C488 65.8501 487.101 69.8059 485.303 73.3104C483.505 76.7619 481.019 79.4699 477.846 81.4346C474.726 83.3461 471.262 84.3019 467.454 84.3019C464.123 84.3019 461.161 83.6382 458.57 82.3107C455.978 80.9301 453.863 79.231 452.224 77.2132V104.453H443.18V39.6989H452.224V46.1504ZM478.798 61.4429C478.798 58.4162 478.163 55.8144 476.894 53.6373C475.678 51.4072 474.038 49.7346 471.976 48.6195C469.966 47.4513 467.798 46.8672 465.471 46.8672C463.197 46.8672 461.029 47.4513 458.966 48.6195C456.957 49.7877 455.317 51.4868 454.048 53.717C452.832 55.9471 452.224 58.5755 452.224 61.6022C452.224 64.6288 452.832 67.2837 454.048 69.567C455.317 71.7971 456.957 73.4963 458.966 74.6645C461.029 75.8326 463.197 76.4167 465.471 76.4167C467.798 76.4167 469.966 75.8326 471.976 74.6645C474.038 73.4432 475.678 71.6909 476.894 69.4077C478.163 67.1244 478.798 64.4695 478.798 61.4429Z" fill="white"/>
</svg>
