<svg width="374" height="80" viewBox="0 0 374 80" fill="none" xmlns="http://www.w3.org/2000/svg">
<path d="M19.3221 3.56282L30.7209 67.8715M39.5201 28.8874L58.595 21.6381C60.4755 20.9234 60.466 18.3046 58.5803 17.6032L19.3221 3M31.05 67.7187L55.1267 56.9687C56.9364 56.1607 56.5854 53.7127 54.5782 53.1431L40.4974 49.1472M30.3984 68L4.19819 56.6319C2.40619 55.8544 2.68279 53.4536 4.63696 52.8235L16.7092 48.9312" stroke="#1345BA" stroke-width="6" stroke-linecap="round" stroke-linejoin="round"/>
<path d="M88.9854 64.5537C86.3505 64.5537 83.979 64.0856 81.8711 63.1495C79.8037 62.1726 78.1619 60.8702 76.9458 59.2421C75.7297 57.5733 75.0811 55.7214 75 53.6863H82.1751C82.2967 55.1109 82.9656 56.3116 84.1817 57.2884C85.4384 58.2246 86.9991 58.6926 88.8638 58.6926C90.8096 58.6926 92.3095 58.3263 93.3635 57.5937C94.458 56.8203 95.0052 55.8435 95.0052 54.6632C95.0052 53.4014 94.3972 52.4653 93.181 51.8547C92.0055 51.2442 90.1205 50.5726 87.5261 49.84C85.0127 49.1481 82.9656 48.4765 81.3846 47.8253C79.8037 47.174 78.4254 46.1768 77.2498 44.8337C76.1148 43.4905 75.5473 41.72 75.5473 39.5221C75.5473 37.7312 76.0742 36.1032 77.1282 34.6379C78.1822 33.1319 79.6821 31.9516 81.6279 31.0968C83.6142 30.2421 85.8843 29.8147 88.4382 29.8147C92.2487 29.8147 95.3093 30.7916 97.6199 32.7453C99.9711 34.6582 101.228 37.2835 101.39 40.6211H94.458C94.3364 39.1151 93.7283 37.9144 92.6338 37.0189C91.5393 36.1235 90.0597 35.6758 88.1949 35.6758C86.3708 35.6758 84.9722 36.0218 83.9993 36.7137C83.0264 37.4056 82.54 38.3214 82.54 39.4611C82.54 40.3565 82.8643 41.1095 83.5129 41.72C84.1615 42.3305 84.9519 42.8189 85.8843 43.1853C86.8167 43.5109 88.1949 43.9382 90.0191 44.4674C92.4514 45.1186 94.4377 45.7902 95.9781 46.4821C97.5591 47.1333 98.9171 48.1102 100.052 49.4126C101.187 50.7151 101.775 52.4449 101.816 54.6021C101.816 56.5151 101.289 58.2246 100.235 59.7305C99.1806 61.2365 97.6807 62.4168 95.7349 63.2716C93.8296 64.1263 91.5798 64.5537 88.9854 64.5537Z" fill="#1345BA"/>
<path d="M116.237 35.3095C117.413 33.7628 119.014 32.4604 121.041 31.4021C123.068 30.3439 125.358 29.8147 127.912 29.8147C130.831 29.8147 133.486 30.5474 135.878 32.0126C138.31 33.4372 140.215 35.4519 141.594 38.0568C142.972 40.6618 143.661 43.6533 143.661 47.0316C143.661 50.4098 142.972 53.4421 141.594 56.1284C140.215 58.774 138.31 60.8498 135.878 62.3558C133.486 63.821 130.831 64.5537 127.912 64.5537C125.358 64.5537 123.088 64.0449 121.102 63.0274C119.116 61.9691 117.494 60.6667 116.237 59.12V80H109.306V30.3642H116.237V35.3095ZM136.608 47.0316C136.608 44.7116 136.121 42.7172 135.148 41.0484C134.216 39.3389 132.959 38.0568 131.378 37.2021C129.838 36.3067 128.176 35.8589 126.392 35.8589C124.649 35.8589 122.987 36.3067 121.406 37.2021C119.866 38.0975 118.609 39.4 117.636 41.1095C116.704 42.8189 116.237 44.8337 116.237 47.1537C116.237 49.4737 116.704 51.5088 117.636 53.2589C118.609 54.9684 119.866 56.2709 121.406 57.1663C122.987 58.0618 124.649 58.5095 126.392 58.5095C128.176 58.5095 129.838 58.0618 131.378 57.1663C132.959 56.2302 134.216 54.887 135.148 53.1368C136.121 51.3867 136.608 49.3516 136.608 47.0316Z" fill="#1345BA"/>
<path d="M165.049 64.5537C161.887 64.5537 159.029 63.8414 156.475 62.4168C153.921 60.9516 151.915 58.9165 150.455 56.3116C148.996 53.666 148.266 50.6133 148.266 47.1537C148.266 43.7347 149.016 40.7025 150.516 38.0568C152.016 35.4112 154.063 33.3761 156.657 31.9516C159.252 30.527 162.15 29.8147 165.353 29.8147C168.555 29.8147 171.454 30.527 174.048 31.9516C176.642 33.3761 178.69 35.4112 180.189 38.0568C181.689 40.7025 182.439 43.7347 182.439 47.1537C182.439 50.5726 181.669 53.6049 180.129 56.2505C178.588 58.8961 176.48 60.9516 173.805 62.4168C171.17 63.8414 168.251 64.5537 165.049 64.5537ZM165.049 58.5095C166.832 58.5095 168.494 58.0821 170.035 57.2274C171.616 56.3726 172.893 55.0905 173.866 53.3811C174.838 51.6716 175.325 49.5958 175.325 47.1537C175.325 44.7116 174.859 42.6561 173.926 40.9874C172.994 39.2779 171.758 37.9958 170.217 37.1411C168.677 36.2863 167.015 35.8589 165.231 35.8589C163.447 35.8589 161.785 36.2863 160.245 37.1411C158.745 37.9958 157.549 39.2779 156.657 40.9874C155.766 42.6561 155.32 44.7116 155.32 47.1537C155.32 50.7761 156.232 53.5846 158.056 55.5789C159.921 57.5326 162.252 58.5095 165.049 58.5095Z" fill="#1345BA"/>
<path d="M196.224 35.2484C197.237 33.5389 198.575 32.2161 200.237 31.28C201.939 30.3032 203.946 29.8147 206.257 29.8147V37.0189H204.493C201.777 37.0189 199.71 37.7109 198.291 39.0947C196.913 40.4786 196.224 42.88 196.224 46.2989V64.0042H189.292V30.3642H196.224V35.2484Z" fill="#1345BA"/>
<path d="M220.716 36.0421V54.6632C220.716 55.9249 221 56.8407 221.567 57.4105C222.175 57.9397 223.189 58.2042 224.607 58.2042H228.864V64.0042H223.391C220.27 64.0042 217.878 63.2716 216.216 61.8063C214.554 60.3411 213.723 57.96 213.723 54.6632V36.0421H209.771V30.3642H213.723V22H220.716V30.3642H228.864V36.0421H220.716Z" fill="#1345BA"/>
<path d="M275.81 29.8147C278.445 29.8147 280.797 30.3642 282.864 31.4632C284.972 32.5621 286.614 34.1902 287.789 36.3474C289.005 38.5046 289.613 41.1095 289.613 44.1621V64.0042H282.742V45.2C282.742 42.1881 281.992 39.8884 280.492 38.3011C278.993 36.673 276.945 35.8589 274.351 35.8589C271.757 35.8589 269.689 36.673 268.149 38.3011C266.649 39.8884 265.899 42.1881 265.899 45.2V64.0042H259.028V45.2C259.028 42.1881 258.278 39.8884 256.778 38.3011C255.278 36.673 253.231 35.8589 250.637 35.8589C248.042 35.8589 245.975 36.673 244.434 38.3011C242.935 39.8884 242.185 42.1881 242.185 45.2V64.0042H235.253V30.3642H242.185V34.2105C243.32 32.8267 244.759 31.7481 246.502 30.9747C248.245 30.2014 250.11 29.8147 252.096 29.8147C254.771 29.8147 257.163 30.3846 259.271 31.5242C261.379 32.6639 263.001 34.3123 264.136 36.4695C265.149 34.4344 266.73 32.8267 268.879 31.6463C271.027 30.4253 273.338 29.8147 275.81 29.8147Z" fill="#1345BA"/>
<path d="M296.123 47.0316C296.123 43.6533 296.813 40.6618 298.191 38.0568C299.61 35.4519 301.515 33.4372 303.907 32.0126C306.339 30.5474 309.014 29.8147 311.933 29.8147C314.568 29.8147 316.858 30.3439 318.804 31.4021C320.79 32.4196 322.371 33.7018 323.547 35.2484V30.3642H330.54V64.0042H323.547V58.9979C322.371 60.5853 320.77 61.9081 318.743 62.9663C316.716 64.0246 314.406 64.5537 311.811 64.5537C308.933 64.5537 306.298 63.821 303.907 62.3558C301.515 60.8498 299.61 58.774 298.191 56.1284C296.813 53.4421 296.123 50.4098 296.123 47.0316ZM323.547 47.1537C323.547 44.8337 323.061 42.8189 322.088 41.1095C321.155 39.4 319.919 38.0975 318.379 37.2021C316.838 36.3067 315.176 35.8589 313.392 35.8589C311.609 35.8589 309.947 36.3067 308.406 37.2021C306.866 38.0568 305.609 39.3389 304.636 41.0484C303.704 42.7172 303.238 44.7116 303.238 47.0316C303.238 49.3516 303.704 51.3867 304.636 53.1368C305.609 54.887 306.866 56.2302 308.406 57.1663C309.987 58.0618 311.649 58.5095 313.392 58.5095C315.176 58.5095 316.838 58.0618 318.379 57.1663C319.919 56.2709 321.155 54.9684 322.088 53.2589C323.061 51.5088 323.547 49.4737 323.547 47.1537Z" fill="#1345BA"/>
<path d="M346.576 35.3095C347.752 33.7628 349.353 32.4604 351.38 31.4021C353.407 30.3439 355.697 29.8147 358.251 29.8147C361.17 29.8147 363.825 30.5474 366.217 32.0126C368.649 33.4372 370.554 35.4519 371.933 38.0568C373.311 40.6618 374 43.6533 374 47.0316C374 50.4098 373.311 53.4421 371.933 56.1284C370.554 58.774 368.649 60.8498 366.217 62.3558C363.825 63.821 361.17 64.5537 358.251 64.5537C355.697 64.5537 353.427 64.0449 351.441 63.0274C349.455 61.9691 347.833 60.6667 346.576 59.12V80H339.645V30.3642H346.576V35.3095ZM366.946 47.0316C366.946 44.7116 366.46 42.7172 365.487 41.0484C364.555 39.3389 363.298 38.0568 361.717 37.2021C360.177 36.3067 358.515 35.8589 356.731 35.8589C354.988 35.8589 353.326 36.3067 351.745 37.2021C350.204 38.0975 348.948 39.4 347.975 41.1095C347.043 42.8189 346.576 44.8337 346.576 47.1537C346.576 49.4737 347.043 51.5088 347.975 53.2589C348.948 54.9684 350.204 56.2709 351.745 57.1663C353.326 58.0618 354.988 58.5095 356.731 58.5095C358.515 58.5095 360.177 58.0618 361.717 57.1663C363.298 56.2302 364.555 54.887 365.487 53.1368C366.46 51.3867 366.946 49.3516 366.946 47.0316Z" fill="#1345BA"/>
</svg>
